<?xml version="1.0" encoding="UTF-8" standalone="no"?>

<svg
   version="1.1"
   id="Layer_1"
   x="0px"
   y="0px"
   viewBox="0 0 304.83252 96.949997"
   xml:space="preserve"
   sodipodi:docname="logo.svg"
   width="304.83252"
   height="96.949997"
   xmlns:sodipodi="http://sodipodi.sourceforge.net/DTD/sodipodi-0.dtd"
   xmlns="http://www.w3.org/2000/svg"
   xmlns:svg="http://www.w3.org/2000/svg"><defs
   id="defs11" /><sodipodi:namedview
   id="namedview11"
   pagecolor="#ffffff"
   bordercolor="#000000"
   borderopacity="0.25"
/>
<style
   type="text/css"
   id="style1">
	.st0{fill:#FFFFFF;}
</style>
<g
   id="g11"
   transform="translate(-47.900002,-42.125)">
	<g
   id="g10">
		<path
   class="st0"
   d="m 155.36473,73.469513 c -3.62265,0 -7.44409,0.994019 -10.27153,2.451912 l 1.32536,3.379669 c 2.31937,-1.259094 5.52233,-2.120575 8.46021,-2.120575 4.70502,0 7.20111,2.054306 7.20111,6.693062 v 2.076393 c -10.89003,1.060287 -18.93054,4.196968 -18.93054,12.347923 0,6.715153 4.7713,10.205263 12.85599,10.205263 4.50621,0 8.52645,-0.92775 11.22135,-2.38564 V 84.447899 c 0,-7.532456 -4.50622,-10.956299 -11.83987,-10.956299 z m 6.71515,30.704137 c -1.32536,0.68478 -3.44594,1.12656 -5.5665,1.12656 -5.25726,0 -8.0847,-2.56236 -8.0847,-7.134851 0,-5.942024 5.08055,-8.327667 13.6512,-9.343772 z"
   id="path1" />
		<path
   class="st0"
   d="m 186.09096,73.469513 c -4.19696,0 -8.32767,0.949837 -11.46436,2.385643 v 32.007414 h 5.50025 V 78.108269 c 1.76715,-0.751038 3.64474,-1.126557 5.96411,-1.126557 5.52232,0 7.57663,2.518181 7.57663,7.576638 v 23.30422 h 5.52232 V 84.55835 c 0,-7.13485 -4.02025,-11.088837 -13.09895,-11.088837 z"
   id="path2" />
		<path
   class="st0"
   d="m 212.28909,64.633789 -5.52232,1.700874 V 74.1101 h -3.88771 v 3.445938 h 3.88771 v 22.111397 c 0,5.588595 3.26923,8.526485 8.0847,8.526485 1.32535,0 2.45191,-0.17672 3.3134,-0.55224 v -3.5122 c -0.50807,0.19881 -1.0603,0.24298 -1.70088,0.24298 -2.76115,0 -4.19696,-1.76714 -4.19696,-4.705025 V 77.556038 h 5.89784 V 74.1101 h -5.89784 v -9.454224 z"
   id="path3" />
		<path
   class="st0"
   d="m 254.76729,73.469513 c -4.02025,0 -7.46617,1.502075 -9.7193,3.953987 -2.18683,-2.562363 -5.08054,-3.953987 -10.16107,-3.953987 -4.5725,0 -8.32767,0.949837 -11.5969,2.385643 v 32.007414 h 5.45606 V 78.108269 c 1.87759,-0.817307 3.75519,-1.126557 6.33964,-1.126557 5.01427,0 7.13485,2.58445 7.13485,6.450081 v 24.430777 h 5.45605 V 80.162575 c 1.63461,-1.943863 3.82146,-3.20295 6.58263,-3.20295 4.94799,0 6.95813,2.8937 6.95813,7.333649 v 23.547206 h 5.45605 V 84.337456 c 0,-6.450081 -3.62265,-10.912125 -11.90614,-10.912125 v 0.04418 z"
   id="path4" />
		<path
   class="st0"
   d="m 274.13873,74.110321 v 11.331818 10.426155 11.994496 h 2.80536 2.69489 v -16.986676 -8.17305 -8.592743 h -2.51819 z"
   id="path5" />
		<path
   class="st0"
   d="m 298.8125,104.48291 c -5.32352,0 -8.39392,-6.008301 -8.39392,-13.651199 0,-7.642899 3.00412,-13.607018 8.39392,-13.607018 2.01013,0 4.02026,0.684769 5.32352,1.700882 l 1.32538,-3.269218 c -1.81135,-1.369537 -4.43998,-2.186844 -7.57667,-2.186844 -8.08465,0 -13.09893,7.13485 -13.09893,17.472641 0,10.337796 4.94799,17.538916 13.09893,17.538916 3.13669,0 5.76532,-0.8173 7.57667,-2.18684 l -1.39164,-3.44593 c -1.30328,0.99402 -3.24713,1.63461 -5.25726,1.63461 z"
   id="path6" />
		<path
   class="st0"
   d="m 310.78491,75.855377 v 32.007413 h 5.52234 v -29.7543 c 1.19281,-0.6185 2.76117,-0.883575 4.26325,-0.883575 1.25906,0 2.4519,0.198806 3.44592,0.574325 l 1.25909,-4.130707 c -0.30926,-0.06626 -1.6788,-0.176712 -2.93789,-0.176712 -4.81546,0 -8.63691,0.949845 -11.53064,2.385643 z"
   id="path7" />
		<path
   class="st0"
   d="m 339.39059,73.469513 c -9.14498,0 -13.34198,7.399917 -13.34198,17.472641 0,10.072726 4.197,17.538916 13.34198,17.538916 9.14496,0 13.34192,-7.39992 13.34192,-17.538916 0,-10.139 -4.19696,-17.472641 -13.34192,-17.472641 z m 0,31.322647 c -5.89788,0 -7.84173,-6.450081 -7.84173,-13.960449 0,-7.510361 1.94385,-13.849999 7.84173,-13.849999 5.89783,0 7.84168,6.339638 7.84168,13.849999 0,7.510368 -1.94385,13.960449 -7.84168,13.960449 z"
   id="path8" />
		<path
   class="st0"
   d="m 89.516708,90.058586 h -4.439949 -4.903831 c -0.30925,-1.192825 -1.369537,-2.076401 -2.628624,-2.076401 -1.52417,0 -2.739082,1.281182 -2.739082,2.783257 0,1.502075 1.214912,2.6949 2.739082,2.6949 1.259087,0 2.319374,-0.839401 2.628624,-1.988044 h 9.34378 v 3.887718 h -4.351593 c 0,0 -0.353431,-0.04417 -0.574325,0.132545 -0.397606,0.309242 -1.391625,1.281174 -1.391625,1.281174 l -2.739074,2.739075 c -0.375519,-0.198799 -0.795212,-0.331337 -1.259095,-0.331337 -1.502067,0 -2.739074,1.236997 -2.739074,2.739077 0,1.50207 1.214912,2.73907 2.739074,2.73907 1.524163,0 2.739075,-1.21491 2.739075,-2.73907 0,-0.53015 -0.154625,-1.0382 -0.44178,-1.4579 l 3.202949,-3.202946 c 0,0 0.397606,-0.375518 0.552231,-0.441787 0.08836,-0.04418 0.331337,-0.04418 0.331337,-0.04418 h 3.909813 v 6.096653 c -1.789238,0.33134 -3.158775,1.89968 -3.158775,3.77727 0,2.12057 1.722969,3.84354 3.865631,3.84354 2.142662,0 3.843536,-1.72297 3.843536,-3.84354 0,-1.87759 -1.34745,-3.44593 -3.13668,-3.77727 v -6.096653 h 3.909813 c 0,0 0.242981,0 0.331337,0.04418 0.154625,0.06627 0.552231,0.441788 0.552231,0.441788 l 3.202949,3.202945 c -0.265068,0.4197 -0.441788,0.92775 -0.441788,1.4579 0,1.52416 1.21492,2.73907 2.739075,2.73907 1.52417,0 2.73907,-1.21491 2.73907,-2.73907 0,-1.52416 -1.2149,-2.739077 -2.73907,-2.739077 -0.46387,0 -0.88357,0.132538 -1.259087,0.331337 l -2.739074,-2.739075 c 0,0 -0.994019,-0.971931 -1.391625,-1.281174 -0.220894,-0.176719 -0.574325,-0.132545 -0.574325,-0.132545 h -4.351593 v -3.909805 h 9.343784 c 0.30925,1.148643 1.36953,1.988037 2.62862,1.988037 1.50208,0 2.73907,-1.170731 2.73907,-2.694893 0,-1.524163 -1.21491,-2.783249 -2.73907,-2.783249 -1.25909,0 -2.31937,0.905655 -2.62862,2.076385 H 90.886246 V 86.03833 h 4.351593 c 0,0 0.353431,0.04418 0.574325,-0.13253 0.397606,-0.309258 1.391625,-1.259094 1.391625,-1.259094 l 2.739074,-2.739075 c 0.375517,0.198799 0.795217,0.331337 1.259087,0.331337 1.52417,0 2.73907,-1.237 2.73907,-2.739075 0,-1.502067 -1.2149,-2.739075 -2.73907,-2.739075 -1.524155,0 -2.739075,1.214913 -2.739075,2.739075 0,0.552239 0.154625,1.038201 0.441788,1.457901 l -3.202949,3.202942 c 0,0 -0.397606,0.375519 -0.552231,0.441788 -0.08836,0.04418 -0.331337,0.04418 -0.331337,0.04418 h -3.909813 v -6.09665 c 1.78923,-0.331344 3.13668,-1.899681 3.13668,-3.777275 0,-2.120575 -1.722961,-3.843544 -3.843536,-3.843544 -2.120575,0 -3.865631,1.722969 -3.865631,3.843544 0,1.877594 1.369537,3.445931 3.158775,3.777275 v 6.09665 h -3.909813 c 0,0 -0.242981,0 -0.331337,-0.04418 -0.154625,-0.06627 -0.552231,-0.441788 -0.552231,-0.441788 l -3.202949,-3.202942 c 0.265068,-0.4197 0.44178,-0.927757 0.44178,-1.457901 0,-1.502067 -1.214912,-2.739075 -2.739075,-2.739075 -1.524162,0 -2.739074,1.214913 -2.739074,2.739075 0,1.524162 1.214912,2.739075 2.739074,2.739075 0.463883,0 0.883576,-0.132538 1.259095,-0.331337 l 2.739074,2.739075 c 0,0 0.994019,0.971923 1.391625,1.259094 0.220894,0.176712 0.574325,0.13253 0.574325,0.13253 h 4.351593 v 3.998161 z m -11.972404,1.988037 c -0.728951,0 -1.34745,-0.596413 -1.34745,-1.347442 0,-0.751038 0.596412,-1.347451 1.34745,-1.347451 0.75103,0 1.347442,0.596413 1.347442,1.347451 0,0.75103 -0.596412,1.347442 -1.347442,1.347442 z m 1.678787,11.221367 c -0.72895,0 -1.34745,-0.5964 -1.34745,-1.34744 0,-0.75104 0.596412,-1.34745 1.34745,-1.34745 0.75103,0 1.347443,0.59641 1.347443,1.34745 0,0.75104 -0.596413,1.34744 -1.347443,1.34744 z m 22.023039,-2.67281 c 0.72895,0 1.34745,0.59642 1.34745,1.34745 0,0.75104 -0.59641,1.34745 -1.34745,1.34745 -0.75104,0 -1.347448,-0.59641 -1.347448,-1.34745 0,-0.75103 0.596408,-1.34745 1.347448,-1.34745 z m 1.6567,-11.221363 c 0.75104,0 1.34745,0.596413 1.34745,1.347451 0,0.75103 -0.59641,1.347442 -1.34745,1.347442 -0.75104,0 -1.34745,-0.596412 -1.34745,-1.347442 0,-0.751038 0.59641,-1.347451 1.34745,-1.347451 z m -1.6567,-11.221366 c 0.72895,0 1.34745,0.596405 1.34745,1.347442 0,0.751038 -0.59641,1.34745 -1.34745,1.34745 -0.75104,0 -1.347448,-0.596412 -1.347448,-1.34745 0,-0.751037 0.596408,-1.347442 1.347448,-1.347442 z m -22.023039,2.672798 c -0.72895,0 -1.34745,-0.596405 -1.34745,-1.347443 0,-0.751037 0.596412,-1.34745 1.34745,-1.34745 0.75103,0 1.347443,0.596413 1.347443,1.34745 0,0.751038 -0.596413,1.347443 -1.347443,1.347443 z m 8.570648,-6.074555 c 0,-1.34745 1.082375,-2.429825 2.429825,-2.429825 1.34745,0 2.429825,1.082375 2.429825,2.429825 0,1.347443 -1.082375,2.429825 -2.429825,2.429825 -1.34745,0 -2.429825,-1.082382 -2.429825,-2.429825 z m 2.429825,29.467136 c 1.34745,0 2.429825,1.10447 2.429825,2.42983 0,1.34745 -1.082375,2.42982 -2.429825,2.42982 -1.34745,0 -2.429825,-1.08237 -2.429825,-2.42982 0,-1.34745 1.082375,-2.42983 2.429825,-2.42983 z"
   id="path9" />
		<path
   class="st0"
   d="m 129.96181,64.236404 h -0.0442 c 0,0 -0.0663,-0.06628 -0.11045,-0.08836 L 111.23006,53.412636 93.116821,42.986481 C 92.299522,42.43425 91.305496,42.125 90.245216,42.125 c -1.060287,0 -2.010131,0.30925 -2.827438,0.839394 l -22.08931,12.76762 -14.534767,8.39394 c -1.722965,0.86148 -2.893699,2.628624 -2.893699,4.660843 0,0.154625 0,0.309249 0.02209,0.463874 v 25.225998 17.472651 c 0,0.15462 -0.02209,0.30925 -0.02209,0.46387 0,2.05431 1.170734,3.82145 2.893699,4.66085 l 36.646172,21.16156 c 0.817306,0.53015 1.78923,0.8394 2.82743,0.8394 1.038193,0 2.032219,-0.30925 2.871613,-0.8615 l 17.075034,-9.85182 c 0,0 0,-0.0221 0.0442,-0.0221 1.14865,-0.66268 19.54904,-11.28764 19.54904,-11.28764 0.0221,0 0.0663,-0.0442 0.11045,-0.0663 h 0.0442 c 1.54623,-0.92775 2.60653,-2.60654 2.60653,-4.5504 V 68.764709 c 0,-1.921768 -1.0603,-3.600555 -2.60653,-4.506218 v -0.02209 z M 117.9673,104.7482 c 0,0.17671 0,0.33134 0,0.48596 -0.0442,0.15463 -0.0884,0.30925 -0.0884,0.37552 -0.1988,0.92775 -0.77312,1.72297 -1.56834,2.20893 L 93.691147,120.8734 c -0.574326,0.33133 -1.170731,0.66268 -1.745056,0.99402 -0.48597,0.28716 -1.060288,0.46388 -1.6567,0.46388 -0.242981,0 -0.463875,-0.0221 -0.684769,-0.0884 -0.419693,-0.0884 -0.817299,-0.24299 -1.170731,-0.46388 l -23.988998,-13.85 c 0,0 -0.220886,-0.11045 -0.53014,-0.26507 -0.132534,-0.13253 -0.485966,-0.50805 -0.530144,-0.53015 -0.441787,-0.50805 -0.728946,-1.12655 -0.817302,-1.81131 0,0 0,-0.0442 0,-0.0663 h -0.02209 V 76.319252 c 0,-0.353424 0.06627,-0.706856 0.154625,-1.016106 v -0.04418 c 0,0 0,0.04418 0,0.06627 0.287162,-0.883567 0.905662,-1.634605 1.722965,-2.032219 L 88.411804,59.44302 c 0,0 0.309242,-0.176716 0.728943,-0.375519 0.08836,-0.02209 0.353432,-0.06627 0.441788,-0.08836 0.220894,-0.04418 0.441788,-0.06627 0.684769,-0.06627 0.684768,0 1.325363,0.198803 1.877594,0.552231 l 24.011082,13.850002 c 0,0 0.0442,0.02209 0.0663,0.04417 h 0.0442 c 0.33133,0.220894 0.6185,0.463883 0.86148,0.751038 0.53014,0.596413 0.83939,1.369537 0.83939,2.231026 0,0 0,0.04417 0,0.06627 0,0 0,0 0.0221,0 0,0 -0.0221,1.236999 0,28.362672 z"
   id="path10" />
	</g>
</g>
</svg>
