<svg width="1146" height="192" viewBox="0 0 1146 192" fill="none" xmlns="http://www.w3.org/2000/svg">
<path d="M20 169V104H0V88H20V23L36 7H72V23H38V84L26 96L38 108V169H72V185H36L20 169Z" fill="white"/>
<rect x="72" y="46" width="69" height="10" fill="#4AA94A"/>
<rect x="62" y="61" width="50" height="10" fill="#4AA94A"/>
<rect x="118" y="61" width="27" height="10" fill="white"/>
<rect x="62" y="76" width="35" height="10" fill="white"/>
<rect x="62" y="91" width="13.7" height="10" fill="#FAB90C"/>
<rect x="81.7002" y="91" width="15" height="10" fill="white"/>
<rect x="62" y="106" width="35" height="10" fill="#4AA94A"/>
<rect x="62" y="121" width="59" height="10" fill="#4AA94A"/>
<rect x="127" y="121" width="17" height="10" fill="white"/>
<rect width="13.7" height="10" transform="matrix(-1 0 0 1 85.7002 136)" fill="#E74A3C"/>
<rect width="53" height="10" transform="matrix(-1 0 0 1 144.7 136)" fill="white"/>
<path d="M187 23V88H207V104H187V169L171 185H135V169H169V108L181 96L169 84V23H135V7H171L187 23Z" fill="white"/>
<path d="M1016.17 152L999.292 96.6137V40H1012.64V94.389L1023.53 134.433L1035.12 93.0849V73.8301H1047.08V92.8548L1058.74 134.279L1069.56 94.6192V40H1082.91V96.6137L1066.03 152H1053.91L1041.18 108.121L1028.06 152H1016.17Z" fill="white"/>
<path d="M914.199 152V40H972.194L973.958 52.5808H929.081V90.0164H965.52V101.984H929.081V139.419H976.797L974.955 152H914.199Z" fill="white"/>
<path d="M817.373 152L815.839 139.419H843.916V52.5808H815.839L817.373 40H886.414L887.948 52.5808H858.798V139.419H887.948L886.414 152H817.373Z" fill="white"/>
<path d="M747.858 152L722.62 96.1534V40H737.426V91.5507L756.757 138.345L776.089 91.7808V40H790.894V96.1534L765.656 152H747.858Z" fill="white"/>
<path d="M628.392 152V40H674.342L699.12 62.3233V82.3452L677.027 102.674L697.74 131.901V152H682.781V133.742L663.219 105.282H643.427V152H628.392ZM643.427 94.7726H668.052L684.392 78.3562V67.463L668.052 52.811H643.427V94.7726Z" fill="white"/>
<path d="M533.645 152V40H597.392L599.157 52.5808H548.527V90.0164H589.645V101.984H548.527V139.419H601.995L600.154 152H533.645Z" fill="white"/>
<path d="M462.424 152L437.186 96.1534V40H451.991V91.5507L471.323 138.345L490.654 91.7808V40H505.46V96.1534L480.221 152H462.424Z" fill="white"/>
<path d="M365.906 152L337.139 110.882V80.5808L365.906 40H387.462L415.232 80.5808V110.882L386.465 152H365.906ZM351.867 106.433L372.58 138.422H379.714L400.503 106.433V85.0301L380.174 53.5781H372.963L351.867 85.0301V106.433Z" fill="white"/>
<path d="M270.23 152L242 111.036V80.4274L270.23 40H315.874L317.945 53.3479H278.131L256.729 85.0301V106.433L278.131 138.652H317.945L315.874 152H270.23Z" fill="white"/>
</svg>
