<?xml version="1.0" encoding="UTF-8" standalone="no"?>
<svg
   width="376.91089"
   height="244.41701"
   viewBox="0 0 376.91089 244.41701"
   fill="none"
   version="1.1"
   id="svg15"
   xmlns="http://www.w3.org/2000/svg"
   xmlns:svg="http://www.w3.org/2000/svg">
  <defs
     id="defs15" />
  <path
     d="m 82.4559,49.82 c 0,-4.012 3.252,-7.264 7.263,-7.264 h 136.081 c 4.011,0 7.263,3.252 7.263,7.264 v 1.657 c 0,4.011 -3.252,7.264 -7.263,7.264 H 89.7189 c -4.011,0 -7.263,-3.253 -7.263,-7.264 z"
     fill="#00AF91"
     id="path1"
     style="fill:#ffffff" />
  <path
     d="m 82.4559,85.786 c 0,-4.012 3.252,-7.264 7.263,-7.264 h 41.67 c 4.011,0 7.264,3.252 7.264,7.264 v 1.657 c 0,4.012 -3.253,7.264 -7.264,7.264 h -41.67 c -4.011,0 -7.263,-3.252 -7.263,-7.264 z"
     fill="#00AF91"
     id="path2"
     style="fill:#ffffff" />
  <path
     d="m 82.4559,110.962 c 0,-4.012 3.252,-7.264 7.263,-7.264 h 41.67 c 4.011,0 7.264,3.252 7.264,7.264 v 1.207 c 0,4.012 -3.253,7.264 -7.264,7.264 h -41.67 c -4.011,0 -7.263,-3.252 -7.263,-7.264 z"
     fill="#00AF91"
     id="path3"
     style="fill:#ffffff" />
  <path
     d="m 82.4559,135.689 c 0,-4.012 3.252,-7.264 7.263,-7.264 h 41.67 c 4.011,0 7.264,3.252 7.264,7.264 v 1.657 c 0,4.012 -3.253,7.264 -7.264,7.264 h -41.67 c -4.011,0 -7.263,-3.252 -7.263,-7.264 z"
     fill="#00AF91"
     id="path4"
     style="fill:#ffffff" />
  <path
     d="m 82.4559,168.958 c 0,-4.012 3.252,-7.264 7.263,-7.264 h 41.67 c 4.011,0 7.264,3.252 7.264,7.263 v 1.208 c 0,4.012 -3.253,7.264 -7.264,7.264 h -41.67 c -4.011,0 -7.263,-3.252 -7.263,-7.264 z"
     fill="#332D37"
     id="path5"
     style="fill:#ffffff" />
  <path
     d="m 82.4559,193.684 c 0,-4.011 3.252,-7.264 7.263,-7.264 h 41.67 c 4.011,0 7.264,3.253 7.264,7.264 v 1.657 c 0,4.012 -3.253,7.264 -7.264,7.264 h -41.67 c -4.011,0 -7.263,-3.252 -7.263,-7.264 z"
     fill="#332D37"
     id="path6"
     style="fill:#ffffff" />
  <path
     d="m 153.0389,135.689 c 0,-4.012 3.252,-7.264 7.264,-7.264 h 100.114 c 4.012,0 7.264,3.252 7.264,7.264 v 1.657 c 0,4.012 -3.252,7.264 -7.264,7.264 h -100.114 c -4.012,0 -7.264,-3.252 -7.264,-7.264 z"
     fill="#332D37"
     id="path7"
     style="fill:#ffffff" />
  <path
     d="m 153.0389,110.962 c 0,-4.012 3.252,-7.264 7.264,-7.264 h 100.114 c 4.012,0 7.264,3.252 7.264,7.264 v 1.207 c 0,4.012 -3.252,7.264 -7.264,7.264 h -100.114 c -4.012,0 -7.264,-3.252 -7.264,-7.264 z"
     fill="#E74A3C"
     id="path8"
     style="fill:#ffffff" />
  <path
     d="m 153.0389,85.786 c 0,-4.012 3.252,-7.264 7.264,-7.264 h 65.497 c 4.011,0 7.264,3.252 7.264,7.264 v 1.657 c 0,4.012 -3.253,7.264 -7.264,7.264 h -65.497 c -4.012,0 -7.264,-3.252 -7.264,-7.264 z"
     fill="#332D37"
     id="path9"
     style="fill:#ffffff" />
  <path
     d="m 247.4489,85.786 c 0,-4.012 3.252,-7.264 7.264,-7.264 h 39.242 c 4.012,0 7.264,3.252 7.264,7.264 v 1.657 c 0,4.012 -3.252,7.264 -7.264,7.264 h -39.242 c -4.012,0 -7.264,-3.252 -7.264,-7.264 z"
     fill="#332D37"
     id="path10"
     style="fill:#ffffff" />
  <path
     d="m 153.0389,194.134 c 0,-4.012 3.252,-7.264 7.264,-7.264 h 72.24 c 4.012,0 7.264,3.252 7.264,7.264 v 1.207 c 0,4.012 -3.252,7.264 -7.264,7.264 h -72.24 c -4.012,0 -7.264,-3.252 -7.264,-7.264 z"
     fill="#E74A3C"
     id="path11"
     style="fill:#ffffff" />
  <path
     d="m 153.0389,168.957 c 0,-4.011 3.252,-7.263 7.264,-7.263 h 46.165 c 4.012,0 7.264,3.252 7.264,7.264 v 1.656 c 0,4.012 -3.252,7.264 -7.264,7.264 h -46.165 c -4.012,0 -7.264,-3.252 -7.264,-7.264 z"
     fill="#00AF91"
     id="path12"
     style="fill:#ffffff" />
  <path
     d="m 224.5209,168.957 c 0,-4.011 3.252,-7.263 7.264,-7.263 h 46.165 c 4.012,0 7.264,3.252 7.264,7.264 v 1.656 c 0,4.012 -3.252,7.264 -7.264,7.264 h -46.165 c -4.012,0 -7.264,-3.252 -7.264,-7.264 z"
     fill="#332D37"
     id="path13"
     style="fill:#ffffff" />
  <path
     d="m 376.9109,121.827 v 11.839 c -10.63,0 -18.077,2.228 -22.341,6.683 -4.201,4.456 -6.302,11.903 -6.302,22.341 v 30.553 c 0,8.783 -0.859,16.39 -2.577,22.818 -1.655,6.429 -4.392,11.744 -8.211,15.945 -3.819,4.201 -8.911,7.319 -15.276,9.356 -6.365,2.037 -14.226,3.055 -23.583,3.055 v -18.713 c 7.384,0 13.176,-1.177 17.377,-3.532 4.264,-2.292 7.256,-5.824 8.974,-10.598 1.783,-4.774 2.674,-10.884 2.674,-18.331 v -38.191 c 0,-4.964 0.636,-9.484 1.909,-13.557 1.337,-4.074 3.756,-7.575 7.256,-10.503 3.501,-2.927 8.466,-5.187 14.895,-6.778 6.492,-1.592 14.894,-2.387 25.205,-2.387 z M 298.6209,0 c 9.357,0 17.218,1.018 23.583,3.055 6.365,2.037 11.457,5.156 15.276,9.357 3.819,4.201 6.556,9.516 8.211,15.944 1.718,6.429 2.577,14.035 2.577,22.819 v 30.552 c 0,10.439 2.101,17.886 6.302,22.341 4.264,4.456 11.711,6.684 22.341,6.684 v 11.839 c -10.311,0 -18.713,-0.796 -25.205,-2.387 -6.429,-1.592 -11.394,-3.851 -14.895,-6.779 -3.5,-2.928 -5.919,-6.429 -7.256,-10.502 -1.273,-4.074 -1.909,-8.593 -1.909,-13.558 v -38.19 c 0,-7.447 -0.891,-13.558 -2.674,-18.331 -1.718,-4.838 -4.71,-8.402 -8.974,-10.694 -4.201,-2.291 -9.993,-3.437 -17.377,-3.437 z m 78.29,110.752 v 22.914 h -22.532 v -22.914 z"
     fill="black"
     id="path14"
     style="fill:#ffffff" />
  <path
     d="m 0,121.827 v 11.839 c 10.6296,0 18.0767,2.228 22.3413,6.683 4.2009,4.456 6.3013,11.903 6.3013,22.341 v 30.553 c 0,8.783 0.8593,16.39 2.5779,22.818 1.6549,6.429 4.3919,11.744 8.2104,15.945 3.82,4.201 8.912,7.319 15.277,9.356 6.365,2.037 14.225,3.055 23.582,3.055 v -18.713 c -7.383,0 -13.176,-1.177 -17.377,-3.532 -4.264,-2.292 -7.256,-5.824 -8.974,-10.598 -1.782,-4.774 -2.674,-10.884 -2.674,-18.331 v -38.191 c 0,-4.964 -0.636,-9.484 -1.909,-13.557 -1.337,-4.074 -3.755,-7.575 -7.256,-10.503 -3.501,-2.927 -8.4657,-5.187 -14.8944,-6.778 C 18.7132,122.622 10.3113,121.827 0,121.827 Z M 78.2899,0 c -9.357,0 -17.217,1.018 -23.582,3.055 -6.365,2.037 -11.457,5.156 -15.277,9.357 -3.8185,4.201 -6.5555,9.516 -8.2104,15.944 -1.7186,6.429 -2.5779,14.035 -2.5779,22.819 v 30.552 c 0,10.439 -2.1004,17.886 -6.3013,22.341 -4.2646,4.456 -11.7117,6.684 -22.3413,6.684 v 11.839 c 10.3113,0 18.7132,-0.796 25.2055,-2.387 6.4287,-1.592 11.3934,-3.851 14.8944,-6.779 3.501,-2.928 5.919,-6.429 7.256,-10.502 1.273,-4.074 1.909,-8.593 1.909,-13.558 v -38.19 c 0,-7.447 0.892,-13.558 2.674,-18.331 1.718,-4.838 4.71,-8.402 8.974,-10.694 4.201,-2.291 9.994,-3.437 17.377,-3.437 z M 0,110.752 v 22.914 h 22.5322 v -22.914 z"
     fill="black"
     id="path15"
     style="fill:#ffffff" />
</svg>
